<svg xmlns="http://www.w3.org/2000/svg" viewBox="0 0 128 128" style="enable-background:new 0 0 128 128;">
<style type="text/css">
	.st0{fill:url(#rainbow);}
	.st1{stroke:black; stroke-width:12; stroke-miterlimit:10;}
	.st2{fill:white;}
</style>

<linearGradient id="rainbow" gradientUnits="userSpaceOnUse" x1="0" y1="128" x2="128" y2="0">
	<stop  offset="0" style="stop-color:crimson"/>
	<stop  offset="0.25" style="stop-color:darkorange"/>
	<stop  offset="0.42" style="stop-color:gold"/>
	<stop  offset="0.58" style="stop-color:yellowgreen"/>
	<stop  offset="0.75" style="stop-color:dodgerblue"/>
	<stop  offset="1" style="stop-color:rebeccapurple"/>
</linearGradient>

<rect class="st0" width="128" height="128"/>
<g>
	<g>
		<path class="st1" d="M35,43.6c0.5-0.9,1-1.5,1.5-1.9c0.5-0.4,1.2-0.5,1.9-0.5c1.2,0,2,0.3,2.5,0.9c0.5,0.6,0.7,1.7,0.7,3.2
			l0.1,9.5c0,1.7-0.3,2.8-0.8,3.4s-1.5,0.9-3,0.9c-1,0-1.8-0.2-2.3-0.7s-1-1.4-1.4-2.7c-0.6-2.3-1.6-4-3-5c-1.4-1-3.3-1.5-5.8-1.5
			c-3.7,0-6.6,1.3-8.6,3.8c-2,2.5-3,6.2-3,11c0,4.8,1,8.4,3,11c2,2.6,4.9,3.8,8.6,3.8c2.5,0,5.4-0.8,8.4-2.5c3.1-1.7,5-2.5,5.8-2.5
			c0.9,0,1.7,0.4,2.4,1.2c0.6,0.8,1,1.8,1,3c0,2.1-1.9,4.2-5.6,6c-3.8,1.9-8,2.8-12.7,2.8c-6.4,0-11.5-2.1-15.4-6.3
			C5.4,76.3,3.5,70.8,3.5,64c0-6.5,2-12,6-16.3c4-4.3,9-6.5,15.1-6.5c1.7,0,3.4,0.2,5.1,0.6C31.4,42.2,33.1,42.8,35,43.6z"/>
		<path class="st2" d="M35,43.6c0.5-0.9,1-1.5,1.5-1.9c0.5-0.4,1.2-0.5,1.9-0.5c1.2,0,2,0.3,2.5,0.9c0.5,0.6,0.7,1.7,0.7,3.2
			l0.1,9.5c0,1.7-0.3,2.8-0.8,3.4s-1.5,0.9-3,0.9c-1,0-1.8-0.2-2.3-0.7s-1-1.4-1.4-2.7c-0.6-2.3-1.6-4-3-5c-1.4-1-3.3-1.5-5.8-1.5
			c-3.7,0-6.6,1.3-8.6,3.8c-2,2.5-3,6.2-3,11c0,4.8,1,8.4,3,11c2,2.6,4.9,3.8,8.6,3.8c2.5,0,5.4-0.8,8.4-2.5c3.1-1.7,5-2.5,5.8-2.5
			c0.9,0,1.7,0.4,2.4,1.2c0.6,0.8,1,1.8,1,3c0,2.1-1.9,4.2-5.6,6c-3.8,1.9-8,2.8-12.7,2.8c-6.4,0-11.5-2.1-15.4-6.3
			C5.4,76.3,3.5,70.8,3.5,64c0-6.5,2-12,6-16.3c4-4.3,9-6.5,15.1-6.5c1.7,0,3.4,0.2,5.1,0.6C31.4,42.2,33.1,42.8,35,43.6z"/>
	</g>
	<g>
		<path class="st1" d="M74,43.3c0.4-0.8,0.8-1.3,1.2-1.6c0.5-0.3,1.2-0.4,2.1-0.4c1.4,0,2.3,0.3,2.7,0.8c0.4,0.5,0.6,1.6,0.7,3.1
			l0.1,7v0.4c0,1.4-0.3,2.4-0.9,3c-0.6,0.6-1.5,0.9-2.9,0.9c-1.7,0-3-0.9-3.9-2.8c-0.1-0.3-0.2-0.5-0.3-0.7
			c-0.8-1.5-1.8-2.6-3.1-3.4c-1.3-0.8-2.8-1.1-4.6-1.1c-2.2,0-4,0.5-5.3,1.5c-1.3,1-2,2.3-2,3.9c0,2.2,3.1,4,9.2,5.3
			c1,0.2,1.9,0.4,2.5,0.5c4.7,1,8,2.6,10.1,4.7c2.1,2.1,3.1,4.9,3.1,8.6c0,4.5-1.5,7.9-4.6,10.3c-3,2.4-7.4,3.6-13,3.6
			c-2.2,0-4.2-0.1-5.9-0.4c-1.7-0.3-3.4-0.7-5-1.3c-0.4,0.6-0.8,1.1-1.3,1.4c-0.5,0.3-1.2,0.4-2.1,0.4c-1.5,0-2.6-0.3-3.2-0.9
			c-0.6-0.6-0.9-1.6-0.9-3.1l-0.1-8.6v-0.4c0-1.6,0.3-2.7,0.9-3.4c0.6-0.6,1.6-0.9,3.1-0.9c1.6,0,2.9,1.1,4,3.4
			c0.2,0.6,0.4,1,0.6,1.3c0.9,1.9,2.3,3.3,4,4.2c1.7,0.9,3.8,1.4,6.2,1.4c2.2,0,4-0.5,5.2-1.4c1.2-0.9,1.9-2.2,1.9-3.9
			c0-2.6-2.8-4.6-8.4-5.9c-1.7-0.4-3-0.7-4-1c-4.7-1.2-8-2.8-9.8-4.6c-1.8-1.9-2.7-4.4-2.7-7.6c0-4.2,1.6-7.5,4.7-10.2
			c3.1-2.6,7.2-4,12.1-4c1.7,0,3.3,0.2,4.9,0.5C70.9,42.1,72.5,42.6,74,43.3z"/>
		<path class="st2" d="M74,43.3c0.4-0.8,0.8-1.3,1.2-1.6c0.5-0.3,1.2-0.4,2.1-0.4c1.4,0,2.3,0.3,2.7,0.8c0.4,0.5,0.6,1.6,0.7,3.1
			l0.1,7v0.4c0,1.4-0.3,2.4-0.9,3c-0.6,0.6-1.5,0.9-2.9,0.9c-1.7,0-3-0.9-3.9-2.8c-0.1-0.3-0.2-0.5-0.3-0.7
			c-0.8-1.5-1.8-2.6-3.1-3.4c-1.3-0.8-2.8-1.1-4.6-1.1c-2.2,0-4,0.5-5.3,1.5c-1.3,1-2,2.3-2,3.9c0,2.2,3.1,4,9.2,5.3
			c1,0.2,1.9,0.4,2.5,0.5c4.7,1,8,2.6,10.1,4.7c2.1,2.1,3.1,4.9,3.1,8.6c0,4.5-1.5,7.9-4.6,10.3c-3,2.4-7.4,3.6-13,3.6
			c-2.2,0-4.2-0.1-5.9-0.4c-1.7-0.3-3.4-0.7-5-1.3c-0.4,0.6-0.8,1.1-1.3,1.4c-0.5,0.3-1.2,0.4-2.1,0.4c-1.5,0-2.6-0.3-3.2-0.9
			c-0.6-0.6-0.9-1.6-0.9-3.1l-0.1-8.6v-0.4c0-1.6,0.3-2.7,0.9-3.4c0.6-0.6,1.6-0.9,3.1-0.9c1.6,0,2.9,1.1,4,3.4
			c0.2,0.6,0.4,1,0.6,1.3c0.9,1.9,2.3,3.3,4,4.2c1.7,0.9,3.8,1.4,6.2,1.4c2.2,0,4-0.5,5.2-1.4c1.2-0.9,1.9-2.2,1.9-3.9
			c0-2.6-2.8-4.6-8.4-5.9c-1.7-0.4-3-0.7-4-1c-4.7-1.2-8-2.8-9.8-4.6c-1.8-1.9-2.7-4.4-2.7-7.6c0-4.2,1.6-7.5,4.7-10.2
			c3.1-2.6,7.2-4,12.1-4c1.7,0,3.3,0.2,4.9,0.5C70.9,42.1,72.5,42.6,74,43.3z"/>
	</g>
	<g>
		<path class="st1" d="M115.6,43.3c0.4-0.8,0.8-1.3,1.2-1.6c0.5-0.3,1.2-0.4,2.1-0.4c1.4,0,2.3,0.3,2.7,0.8c0.4,0.5,0.6,1.6,0.7,3.1
			l0.1,7v0.4c0,1.4-0.3,2.4-0.9,3c-0.6,0.6-1.5,0.9-2.9,0.9c-1.7,0-3-0.9-3.9-2.8c-0.1-0.3-0.2-0.5-0.3-0.7
			c-0.8-1.5-1.8-2.6-3.1-3.4c-1.3-0.8-2.8-1.1-4.6-1.1c-2.2,0-4,0.5-5.3,1.5c-1.3,1-2,2.3-2,3.9c0,2.2,3.1,4,9.2,5.3
			c1,0.2,1.9,0.4,2.5,0.5c4.7,1,8,2.6,10.1,4.7c2.1,2.1,3.1,4.9,3.1,8.6c0,4.5-1.5,7.9-4.6,10.3c-3,2.4-7.4,3.6-13,3.6
			c-2.2,0-4.2-0.1-5.9-0.4c-1.7-0.3-3.4-0.7-5-1.3c-0.4,0.6-0.8,1.1-1.3,1.4c-0.5,0.3-1.2,0.4-2.1,0.4c-1.5,0-2.6-0.3-3.2-0.9
			c-0.6-0.6-0.9-1.6-0.9-3.1l-0.1-8.6v-0.4c0-1.6,0.3-2.7,0.9-3.4c0.6-0.6,1.6-0.9,3.1-0.9c1.6,0,2.9,1.1,4,3.4
			c0.2,0.6,0.4,1,0.6,1.3c0.9,1.9,2.3,3.3,4,4.2c1.7,0.9,3.8,1.4,6.2,1.4c2.2,0,4-0.5,5.2-1.4c1.2-0.9,1.9-2.2,1.9-3.9
			c0-2.6-2.8-4.6-8.4-5.9c-1.7-0.4-3-0.7-4-1c-4.7-1.2-8-2.8-9.8-4.6s-2.7-4.4-2.7-7.6c0-4.2,1.6-7.5,4.7-10.2c3.1-2.6,7.2-4,12.1-4
			c1.7,0,3.3,0.2,4.9,0.5C112.5,42.1,114.1,42.6,115.6,43.3z"/>
		<path class="st2" d="M115.6,43.3c0.4-0.8,0.8-1.3,1.2-1.6c0.5-0.3,1.2-0.4,2.1-0.4c1.4,0,2.3,0.3,2.7,0.8c0.4,0.5,0.6,1.6,0.7,3.1
			l0.1,7v0.4c0,1.4-0.3,2.4-0.9,3c-0.6,0.6-1.5,0.9-2.9,0.9c-1.7,0-3-0.9-3.9-2.8c-0.1-0.3-0.2-0.5-0.3-0.7
			c-0.8-1.5-1.8-2.6-3.1-3.4c-1.3-0.8-2.8-1.1-4.6-1.1c-2.2,0-4,0.5-5.3,1.5c-1.3,1-2,2.3-2,3.9c0,2.2,3.1,4,9.2,5.3
			c1,0.2,1.9,0.4,2.5,0.5c4.7,1,8,2.6,10.1,4.7c2.1,2.1,3.1,4.9,3.1,8.6c0,4.5-1.5,7.9-4.6,10.3c-3,2.4-7.4,3.6-13,3.6
			c-2.2,0-4.2-0.1-5.9-0.4c-1.7-0.3-3.4-0.7-5-1.3c-0.4,0.6-0.8,1.1-1.3,1.4c-0.5,0.3-1.2,0.4-2.1,0.4c-1.5,0-2.6-0.3-3.2-0.9
			c-0.6-0.6-0.9-1.6-0.9-3.1l-0.1-8.6v-0.4c0-1.6,0.3-2.7,0.9-3.4c0.6-0.6,1.6-0.9,3.1-0.9c1.6,0,2.9,1.1,4,3.4
			c0.2,0.6,0.4,1,0.6,1.3c0.9,1.9,2.3,3.3,4,4.2c1.7,0.9,3.8,1.4,6.2,1.4c2.2,0,4-0.5,5.2-1.4c1.2-0.9,1.9-2.2,1.9-3.9
			c0-2.6-2.8-4.6-8.4-5.9c-1.7-0.4-3-0.7-4-1c-4.7-1.2-8-2.8-9.8-4.6s-2.7-4.4-2.7-7.6c0-4.2,1.6-7.5,4.7-10.2c3.1-2.6,7.2-4,12.1-4
			c1.7,0,3.3,0.2,4.9,0.5C112.5,42.1,114.1,42.6,115.6,43.3z"/>
	</g>
</g>
</svg>
